<svg width="25" height="24" viewBox="0 0 25 24" fill="none" xmlns="http://www.w3.org/2000/svg">
<g clip-path="url(#clip0_79_130)">
<path d="M9.20565 0.789371C6.80767 1.62125 4.73967 3.20018 3.30538 5.29425C1.87109 7.38832 1.14613 9.88714 1.23698 12.4237C1.32782 14.9602 2.22969 17.4008 3.8101 19.3869C5.39052 21.373 7.56618 22.7999 10.0175 23.4581C12.0049 23.9709 14.087 23.9934 16.085 23.5237C17.895 23.1172 19.5684 22.2476 20.9413 21C22.3702 19.6619 23.4073 17.9596 23.9413 16.0762C24.5216 14.0281 24.6249 11.8742 24.2431 9.78H13.0831V14.4094H19.5463C19.4171 15.1477 19.1403 15.8524 18.7324 16.4813C18.3246 17.1102 17.794 17.6503 17.1725 18.0694C16.3833 18.5914 15.4936 18.9427 14.5606 19.1006C13.6249 19.2746 12.6651 19.2746 11.7294 19.1006C10.781 18.9045 9.88383 18.5131 9.09502 17.9512C7.8278 17.0542 6.87629 15.7799 6.37627 14.31C5.8678 12.8126 5.8678 11.1893 6.37627 9.69187C6.7322 8.64228 7.32058 7.68663 8.09752 6.89625C8.98663 5.97515 10.1123 5.31674 11.3509 4.99326C12.5896 4.66979 13.8934 4.69374 15.1194 5.0625C16.0771 5.35648 16.9529 5.87013 17.6769 6.5625C18.4056 5.8375 19.1331 5.11062 19.8594 4.38187C20.2344 3.99 20.6431 3.61687 21.0125 3.21562C19.9073 2.18714 18.6101 1.38685 17.195 0.860622C14.6182 -0.0750226 11.7987 -0.100167 9.20565 0.789371Z" fill="white"/>
<path d="M9.20555 0.789367C11.7984 -0.100776 14.6179 -0.0762934 17.1949 0.858742C18.6102 1.38855 19.9069 2.19269 21.0106 3.22499C20.6356 3.62624 20.2399 4.00124 19.8574 4.39124C19.1299 5.11749 18.4031 5.84124 17.6768 6.56249C16.9528 5.87012 16.077 5.35648 15.1193 5.06249C13.8938 4.69244 12.59 4.66711 11.351 4.98926C10.112 5.31141 8.98564 5.96861 8.09555 6.88874C7.31861 7.67912 6.73023 8.63477 6.3743 9.68437L2.48743 6.67499C3.87869 3.91604 6.28758 1.80566 9.20555 0.789367Z" fill="#E33629"/>
<path d="M1.45625 9.65624C1.66516 8.62085 2.01201 7.61816 2.4875 6.67499L6.37437 9.69186C5.8659 11.1892 5.8659 12.8126 6.37437 14.31C5.07937 15.31 3.78375 16.315 2.4875 17.325C1.29716 14.9556 0.934123 12.2559 1.45625 9.65624Z" fill="#F8BD00"/>
<path d="M13.0831 9.77814H24.2431C24.6249 11.8724 24.5216 14.0263 23.9412 16.0744C23.4073 17.9578 22.3701 19.66 20.9412 20.9981C19.6869 20.0194 18.4269 19.0481 17.1725 18.0694C17.7944 17.6499 18.3252 17.1092 18.7331 16.4796C19.141 15.8501 19.4175 15.1447 19.5462 14.4056H13.0831C13.0812 12.8644 13.0831 11.3213 13.0831 9.77814Z" fill="#587DBD"/>
<path d="M2.4856 17.325C3.78185 16.325 5.07747 15.32 6.37247 14.31C6.87348 15.7804 7.82635 17.0548 9.09497 17.9512C9.88624 18.5105 10.7853 18.8987 11.735 19.0912C12.6707 19.2652 13.6305 19.2652 14.5662 19.0912C15.4992 18.9333 16.3889 18.5821 17.1781 18.06C18.4325 19.0387 19.6925 20.01 20.9468 20.9887C19.5741 22.237 17.9008 23.1073 16.0906 23.5144C14.0926 23.9841 12.0105 23.9616 10.0231 23.4487C8.45129 23.0291 6.98311 22.2892 5.7106 21.2756C4.36371 20.2063 3.26364 18.8587 2.4856 17.325Z" fill="#319F43"/>
</g>
<defs>
<clipPath id="clip0_79_130">
<rect width="24" height="24" fill="white" transform="translate(0.844971)"/>
</clipPath>
</defs>
</svg>
