<svg width="180" height="45" viewBox="0 0 180 45" fill="none" xmlns="http://www.w3.org/2000/svg">
<path d="M6.72 31.72L6.496 26.792L18.24 14.6H22.912L13.152 24.968L10.848 27.496L6.72 31.72ZM3.008 37V14.6H7.168V37H3.008ZM18.624 37L10.048 26.792L12.8 23.752L23.488 37H18.624ZM33.2185 37.224C31.3198 37.224 29.6558 36.8507 28.2265 36.104C26.8185 35.336 25.7198 34.2907 24.9305 32.968C24.1625 31.6453 23.7785 30.1413 23.7785 28.456C23.7785 26.7493 24.1518 25.2453 24.8985 23.944C25.6665 22.6213 26.7118 21.5867 28.0345 20.84C29.3785 20.0933 30.9038 19.72 32.6105 19.72C34.2745 19.72 35.7572 20.0827 37.0585 20.808C38.3598 21.5333 39.3838 22.5573 40.1305 23.88C40.8772 25.2027 41.2505 26.76 41.2505 28.552C41.2505 28.7227 41.2398 28.9147 41.2185 29.128C41.2185 29.3413 41.2078 29.544 41.1865 29.736H26.9465V27.08H39.0745L37.5065 27.912C37.5278 26.9307 37.3252 26.0667 36.8985 25.32C36.4718 24.5733 35.8852 23.9867 35.1385 23.56C34.4132 23.1333 33.5705 22.92 32.6105 22.92C31.6292 22.92 30.7652 23.1333 30.0185 23.56C29.2932 23.9867 28.7172 24.584 28.2905 25.352C27.8852 26.0987 27.6825 26.984 27.6825 28.008V28.648C27.6825 29.672 27.9172 30.5787 28.3865 31.368C28.8558 32.1573 29.5172 32.7653 30.3705 33.192C31.2238 33.6187 32.2052 33.832 33.3145 33.832C34.2745 33.832 35.1385 33.6827 35.9065 33.384C36.6745 33.0853 37.3572 32.616 37.9545 31.976L40.0985 34.44C39.3305 35.336 38.3598 36.0293 37.1865 36.52C36.0345 36.9893 34.7118 37.224 33.2185 37.224ZM46.1883 43.432C45.3563 43.432 44.5243 43.2933 43.6923 43.016C42.8603 42.7387 42.1669 42.3547 41.6122 41.864L43.2122 38.92C43.6176 39.2827 44.0763 39.5707 44.5883 39.784C45.1003 39.9973 45.6229 40.104 46.1562 40.104C46.8816 40.104 47.4683 39.9227 47.9163 39.56C48.3643 39.1973 48.7803 38.5893 49.1643 37.736L50.1562 35.496L50.4763 35.016L56.9403 19.912H60.7803L52.7803 38.376C52.2469 39.656 51.6496 40.6693 50.9883 41.416C50.3483 42.1627 49.6229 42.6853 48.8123 42.984C48.0229 43.2827 47.1483 43.432 46.1883 43.432ZM49.7083 37.608L41.9962 19.912H46.1562L52.4283 34.664L49.7083 37.608ZM73.972 37.32C72.2227 37.32 70.612 37.0427 69.14 36.488C67.6893 35.912 66.42 35.112 65.332 34.088C64.244 33.0427 63.4013 31.816 62.804 30.408C62.2067 29 61.908 27.464 61.908 25.8C61.908 24.136 62.2067 22.6 62.804 21.192C63.4013 19.784 64.244 18.568 65.332 17.544C66.4413 16.4987 67.732 15.6987 69.204 15.144C70.676 14.568 72.2867 14.28 74.036 14.28C75.9347 14.28 77.6413 14.5893 79.156 15.208C80.692 15.8267 81.9827 16.7333 83.028 17.928L80.404 20.488C79.5293 19.6133 78.58 18.9733 77.556 18.568C76.5533 18.1413 75.444 17.928 74.228 17.928C73.0547 17.928 71.9667 18.12 70.964 18.504C69.9613 18.888 69.0973 19.432 68.372 20.136C67.6467 20.84 67.0813 21.672 66.676 22.632C66.292 23.592 66.1 24.648 66.1 25.8C66.1 26.9307 66.292 27.976 66.676 28.936C67.0813 29.896 67.6467 30.7387 68.372 31.464C69.0973 32.168 69.9507 32.712 70.932 33.096C71.9133 33.48 73.0013 33.672 74.196 33.672C75.3053 33.672 76.372 33.5013 77.396 33.16C78.4413 32.7973 79.4333 32.2 80.372 31.368L82.74 34.472C81.5667 35.4107 80.2013 36.1253 78.644 36.616C77.108 37.0853 75.5507 37.32 73.972 37.32ZM78.804 33.928V25.544H82.74V34.472L78.804 33.928ZM87.8428 37V19.912H91.6508V24.616L91.2028 23.24C91.7148 22.088 92.5148 21.2133 93.6028 20.616C94.7121 20.0187 96.0881 19.72 97.7308 19.72V23.528C97.5601 23.4853 97.4001 23.464 97.2508 23.464C97.1014 23.4427 96.9521 23.432 96.8028 23.432C95.2881 23.432 94.0828 23.88 93.1868 24.776C92.2908 25.6507 91.8428 26.9627 91.8428 28.712V37H87.8428ZM110.433 37V33.544L110.209 32.808V26.76C110.209 25.5867 109.857 24.68 109.153 24.04C108.449 23.3787 107.383 23.048 105.953 23.048C104.993 23.048 104.044 23.1973 103.105 23.496C102.188 23.7947 101.409 24.2107 100.769 24.744L99.2013 21.832C100.119 21.128 101.207 20.6053 102.465 20.264C103.745 19.9013 105.068 19.72 106.433 19.72C108.908 19.72 110.817 20.3173 112.161 21.512C113.527 22.6853 114.209 24.5093 114.209 26.984V37H110.433ZM105.057 37.224C103.777 37.224 102.657 37.0107 101.697 36.584C100.737 36.136 99.9906 35.528 99.4573 34.76C98.9453 33.9707 98.6893 33.0853 98.6893 32.104C98.6893 31.144 98.9133 30.28 99.3613 29.512C99.8306 28.744 100.588 28.136 101.633 27.688C102.679 27.24 104.065 27.016 105.793 27.016H110.753V29.672H106.081C104.716 29.672 103.799 29.896 103.329 30.344C102.86 30.7707 102.625 31.304 102.625 31.944C102.625 32.6693 102.913 33.2453 103.489 33.672C104.065 34.0987 104.865 34.312 105.889 34.312C106.871 34.312 107.745 34.088 108.513 33.64C109.303 33.192 109.868 32.5307 110.209 31.656L110.881 34.056C110.497 35.0587 109.804 35.8373 108.801 36.392C107.82 36.9467 106.572 37.224 105.057 37.224ZM127.214 37.224C125.422 37.224 123.822 36.8507 122.414 36.104C121.027 35.336 119.939 34.2907 119.15 32.968C118.361 31.6453 117.966 30.1413 117.966 28.456C117.966 26.7493 118.361 25.2453 119.15 23.944C119.939 22.6213 121.027 21.5867 122.414 20.84C123.822 20.0933 125.422 19.72 127.214 19.72C128.878 19.72 130.339 20.0613 131.598 20.744C132.878 21.4053 133.849 22.3867 134.51 23.688L131.438 25.48C130.926 24.6693 130.297 24.072 129.55 23.688C128.825 23.304 128.035 23.112 127.182 23.112C126.201 23.112 125.315 23.3253 124.526 23.752C123.737 24.1787 123.118 24.7973 122.67 25.608C122.222 26.3973 121.998 27.3467 121.998 28.456C121.998 29.5653 122.222 30.5253 122.67 31.336C123.118 32.1253 123.737 32.7333 124.526 33.16C125.315 33.5867 126.201 33.8 127.182 33.8C128.035 33.8 128.825 33.608 129.55 33.224C130.297 32.84 130.926 32.2427 131.438 31.432L134.51 33.224C133.849 34.504 132.878 35.496 131.598 36.2C130.339 36.8827 128.878 37.224 127.214 37.224ZM145.75 37.224C143.851 37.224 142.187 36.8507 140.758 36.104C139.35 35.336 138.251 34.2907 137.462 32.968C136.694 31.6453 136.31 30.1413 136.31 28.456C136.31 26.7493 136.683 25.2453 137.43 23.944C138.198 22.6213 139.243 21.5867 140.566 20.84C141.91 20.0933 143.435 19.72 145.142 19.72C146.806 19.72 148.288 20.0827 149.59 20.808C150.891 21.5333 151.915 22.5573 152.662 23.88C153.408 25.2027 153.782 26.76 153.782 28.552C153.782 28.7227 153.771 28.9147 153.75 29.128C153.75 29.3413 153.739 29.544 153.718 29.736H139.478V27.08H151.606L150.038 27.912C150.059 26.9307 149.856 26.0667 149.43 25.32C149.003 24.5733 148.416 23.9867 147.67 23.56C146.944 23.1333 146.102 22.92 145.142 22.92C144.16 22.92 143.296 23.1333 142.55 23.56C141.824 23.9867 141.248 24.584 140.822 25.352C140.416 26.0987 140.214 26.984 140.214 28.008V28.648C140.214 29.672 140.448 30.5787 140.918 31.368C141.387 32.1573 142.048 32.7653 142.902 33.192C143.755 33.6187 144.736 33.832 145.846 33.832C146.806 33.832 147.67 33.6827 148.438 33.384C149.206 33.0853 149.888 32.616 150.486 31.976L152.63 34.44C151.862 35.336 150.891 36.0293 149.718 36.52C148.566 36.9893 147.243 37.224 145.75 37.224Z" fill="#CFBB96"/>
<path d="M162.616 16V6.624H159.448V5.504H167.128V6.624H163.96V16H162.616ZM169.018 16V5.504H170.618L172.634 11.104C172.762 11.4667 172.885 11.8347 173.002 12.208C173.13 12.5707 173.258 12.9333 173.386 13.296H173.45C173.578 12.9333 173.695 12.5707 173.802 12.208C173.919 11.8347 174.042 11.4667 174.17 11.104L176.154 5.504H177.77V16H176.522V10.224C176.522 9.75467 176.543 9.23733 176.586 8.672C176.629 8.096 176.666 7.57867 176.698 7.12H176.634L175.802 9.504L173.818 14.944H172.938L170.954 9.504L170.122 7.12H170.058C170.09 7.57867 170.122 8.096 170.154 8.672C170.197 9.23733 170.218 9.75467 170.218 10.224V16H169.018Z" fill="#CFBB96"/>
</svg>
